<?xml version="1.0" standalone="no"?>
<!DOCTYPE svg PUBLIC "-//W3C//DTD SVG 20010904//EN"
 "http://www.w3.org/TR/2001/REC-SVG-20010904/DTD/svg10.dtd">
<svg version="1.0" xmlns="http://www.w3.org/2000/svg"
 width="500.000000pt" height="500.000000pt" viewBox="0 0 500.000000 500.000000"
 preserveAspectRatio="xMidYMid meet">

<g transform="translate(0.000000,500.000000) scale(0.100000,-0.100000)"
fill="#000000" stroke="none">
<path d="M1947 3368 c-3 -7 -204 -479 -447 -1048 -243 -569 -446 -1045 -451
-1058 l-9 -22 292 2 291 3 102 240 c83 195 100 243 90 255 -6 8 -66 79 -134
157 l-122 143 198 2 197 3 155 382 c86 210 160 385 165 390 8 8 2 -462 -11
-724 l-6 -133 -238 -2 -238 -3 197 -222 c108 -122 200 -219 203 -215 11 12
340 1534 335 1548 -3 8 -58 82 -121 164 l-116 150 -164 0 c-121 0 -164 -3
-168 -12z"/>
<path d="M2452 3288 c36 -46 86 -110 112 -144 l47 -61 -196 -894 c-107 -492
-197 -904 -200 -917 l-5 -22 265 0 c146 0 265 3 265 7 0 4 34 163 76 354 l76
347 -32 113 c-17 63 -33 121 -36 130 -3 11 18 32 70 68 63 43 77 58 85 89 5
20 38 166 72 325 l63 287 213 0 c117 0 213 -3 213 -7 0 -9 -121 -567 -124
-569 0 -1 -102 -52 -226 -114 -124 -62 -226 -113 -227 -114 -1 0 21 -80 48
-176 27 -96 54 -192 60 -212 l10 -38 402 201 c221 111 404 203 406 205 12 11
241 1103 236 1123 -4 14 -23 42 -44 63 l-39 38 -827 0 -827 0 64 -82z"/>
<path d="M4202 1986 c-8 -21 -41 -61 -83 -99 l-70 -64 3 -58 3 -57 53 43 c92
75 139 174 115 244 l-8 26 -13 -35z"/>
<path d="M4242 1858 c-11 -26 -46 -73 -77 -105 l-56 -58 3 -58 3 -58 43 33
c66 51 112 124 118 189 3 30 2 65 -4 79 -9 24 -10 23 -30 -22z"/>
<path d="M3474 1475 c-3 -25 -3 -60 0 -78 15 -81 114 -182 247 -252 37 -19 70
-35 73 -35 3 0 6 31 6 68 l0 68 -45 22 c-135 66 -239 158 -252 225 -8 41 -21
33 -29 -18z"/>
<path d="M3419 1335 c-23 -103 24 -184 158 -274 l81 -55 -32 -21 c-116 -78
-40 -244 83 -180 52 26 83 144 46 175 -10 8 -15 31 -15 66 0 30 -4 54 -9 54
-5 0 -49 27 -99 59 -93 61 -164 138 -177 194 -12 46 -23 40 -36 -18z m275
-401 c35 -13 10 -84 -29 -84 -31 0 -50 32 -35 59 14 27 36 36 64 25z"/>
<path d="M1864 1075 c-9 -23 3 -45 24 -45 25 0 46 25 38 45 -7 19 -55 20 -62
0z"/>
<path d="M2197 1033 c-12 -11 -8 -23 7 -23 8 0 17 6 19 13 4 9 6 9 6 -1 1 -7
-10 -18 -24 -24 -14 -6 -25 -14 -25 -18 0 -10 23 -30 35 -30 14 0 39 66 30 80
-7 11 -38 13 -48 3z"/>
<path d="M941 1011 c-12 -8 -71 -196 -71 -228 0 -8 13 -13 35 -13 24 0 35 5
35 15 0 18 66 21 72 4 4 -13 78 -4 77 9 0 4 -17 54 -37 112 -36 100 -39 105
-67 108 -17 1 -36 -2 -44 -7z m35 -148 c-11 -11 -17 4 -9 23 7 18 8 18 11 1 2
-10 1 -21 -2 -24z"/>
<path d="M1658 1013 c-10 -2 -18 -14 -19 -26 0 -12 -6 -40 -13 -62 l-13 -40
-13 58 c-15 65 -21 71 -56 63 -31 -8 -31 -21 6 -139 32 -101 35 -105 87 -91
14 4 24 18 31 42 l9 37 12 -44 c12 -43 13 -43 48 -38 19 4 38 9 41 12 9 9 60
219 55 228 -7 13 -61 8 -66 -7 -3 -7 -9 -34 -12 -60 -4 -25 -11 -46 -15 -46
-4 0 -14 26 -22 57 -14 58 -23 66 -60 56z"/>
<path d="M1139 991 c-33 -26 -43 -64 -27 -99 11 -22 22 -28 58 -32 57 -6 50
-25 -9 -25 -40 0 -45 -3 -52 -27 -7 -26 -4 -28 33 -39 55 -14 103 -4 128 28
43 55 13 123 -55 123 -19 0 -35 5 -35 10 0 11 10 13 56 10 26 -1 33 3 38 26 4
14 4 29 1 32 -3 3 -29 7 -58 10 -42 3 -57 0 -78 -17z"/>
<path d="M1438 1003 c-14 -3 -18 -15 -18 -54 0 -42 -3 -49 -20 -49 -17 0 -20
7 -20 50 0 43 -3 50 -19 50 -49 0 -51 -6 -51 -126 l0 -114 34 0 c32 0 35 3 38
32 4 46 38 53 38 8 0 -30 1 -31 38 -28 l37 3 0 115 c0 108 -1 115 -20 117 -11
0 -28 -1 -37 -4z"/>
<path d="M1857 1003 c-11 -11 -8 -221 3 -228 6 -4 24 -4 40 0 l30 7 0 114 0
114 -33 0 c-19 0 -37 -3 -40 -7z"/>
<path d="M1963 1003 c-9 -3 -13 -37 -13 -119 l0 -114 35 0 35 0 1 53 0 52 22
-29 c56 -74 63 -79 90 -72 l27 6 0 115 0 115 -40 0 -40 0 0 -47 0 -46 -31 46
c-30 46 -50 55 -86 40z"/>
<path d="M2309 991 c-33 -26 -43 -64 -27 -99 11 -22 22 -28 58 -32 57 -6 50
-25 -9 -25 -40 0 -45 -3 -52 -27 -7 -26 -4 -28 33 -39 55 -14 103 -4 128 28
43 55 13 123 -55 123 -19 0 -35 5 -35 10 0 11 10 13 56 10 26 -1 33 3 38 26 4
14 4 29 1 32 -3 3 -29 7 -58 10 -42 3 -57 0 -78 -17z"/>
<path d="M2608 993 c-16 -4 -18 -18 -18 -104 l0 -99 30 0 c23 0 30 5 30 19 0
12 9 20 28 24 43 9 72 38 78 79 5 30 2 41 -19 62 -21 20 -35 26 -69 25 -24 -1
-51 -3 -60 -6z m95 -65 c13 -20 -6 -48 -34 -48 -15 0 -19 7 -19 36 0 31 3 35
21 32 12 -2 27 -10 32 -20z"/>
<path d="M2833 980 c-36 -22 -60 -82 -49 -124 25 -102 171 -81 196 27 10 46
-3 93 -30 107 -30 16 -82 11 -117 -10z m90 -61 c17 -27 -17 -71 -51 -67 -21 2
-28 9 -30 29 -6 50 56 78 81 38z"/>
<path d="M3017 993 c-4 -3 -7 -51 -7 -105 l0 -98 30 0 c23 0 30 4 30 20 0 28
25 25 47 -5 16 -23 20 -24 37 -12 17 13 17 15 3 38 -14 21 -14 26 -1 43 22 31
18 92 -8 110 -22 16 -118 22 -131 9z m101 -67 c4 -18 -21 -46 -40 -46 -4 0 -8
16 -8 36 0 31 3 35 22 32 13 -2 24 -11 26 -22z"/>
<path d="M3253 993 c-51 -4 -53 -5 -53 -34 0 -26 3 -29 30 -29 l30 0 0 -70 0
-70 30 0 30 0 0 74 0 74 30 6 c24 4 30 11 30 31 0 27 4 27 -127 18z"/>
<path d="M3428 993 l-28 -4 0 -100 0 -99 30 0 c27 0 30 3 30 34 0 36 12 46 56
46 19 0 24 5 24 26 0 25 -2 26 -40 21 -35 -4 -40 -2 -40 14 0 16 7 19 40 19
36 0 40 3 40 25 0 23 -3 25 -42 24 -24 -1 -55 -4 -70 -6z"/>
<path d="M3790 895 l0 -105 48 0 c72 0 92 8 92 37 0 24 -2 25 -40 19 l-40 -6
0 80 0 80 -30 0 -30 0 0 -105z"/>
<path d="M3973 993 c-21 -4 -23 -10 -23 -66 0 -34 3 -79 6 -99 6 -34 10 -38
35 -38 l29 0 0 105 c0 78 -3 105 -12 104 -7 -1 -23 -4 -35 -6z"/>
<path d="M4087 980 c-51 -41 -60 -143 -14 -175 34 -24 91 -19 126 11 53 44 62
138 17 169 -30 22 -98 19 -129 -5z m87 -56 c20 -19 20 -24 0 -52 -18 -25 -46
-29 -64 -7 -16 19 -5 62 18 68 29 8 30 8 46 -9z"/>
</g>
</svg>
